PathFileType	4	(X/Y/Z)	Kaydara																																																																																																																									
DataRate	CameraRate	NumFrames	NumMarkers	Units	OrigDataRate	OrigDataStartFrame	OrigNumFrames																																																																																																																					
30	30	5	41	mm	30	112	179																																																																																																																					
Frame#	Time	EMLA_LFHD			EMLA_RFHD			EMLA_LBHD			EMLA_RBHD			EMLA_LFTShould			EMLA_RFTShould			EMLA_LRRShould			EMLA_RRRShould			EMLA_T10			EMLA_STRN			EMLA_TRUN			EMLA_LSHO			EMLA_LUPA			EMLA_LELB			EMLA_LFRM			EMLA_LWRA			EMLA_LWRB			EMLA_LFIN			EMLA_RSHO			EMLA_RUPA			EMLA_RELB			EMLA_RFRM			EMLA_RWRA			EMLA_RWRB			EMLA_RFIN			EMLA_LFWT			EMLA_RFWT			EMLA_LBWT			EMLA_RBWT			EMLA_LTHI			EMLA_LKNE			EMLA_LSHN			EMLA_LANK			EMLA_LHEE			EMLA_LTOE			EMLA_RTHI			EMLA_RKNE			EMLA_RSHN			EMLA_RANK			EMLA_RHEE			EMLA_RTOE		
		X1	Y1	Z1	X2	Y2	Z2	X3	Y3	Z3	X4	Y4	Z4	X5	Y5	Z5	X6	Y6	Z6	X7	Y7	Z7	X8	Y8	Z8	X9	Y9	Z9	X10	Y10	Z10	X11	Y11	Z11	X12	Y12	Z12	X13	Y13	Z13	X14	Y14	Z14	X15	Y15	Z15	X16	Y16	Z16	X17	Y17	Z17	X18	Y18	Z18	X19	Y19	Z19	X20	Y20	Z20	X21	Y21	Z21	X22	Y22	Z22	X23	Y23	Z23	X24	Y24	Z24	X25	Y25	Z25	X26	Y26	Z26	X27	Y27	Z27	X28	Y28	Z28	X29	Y29	Z29	X30	Y30	Z30	X31	Y31	Z31	X32	Y32	Z32	X33	Y33	Z33	X34	Y34	Z34	X35	Y35	Z35	X36	Y36	Z36	X37	Y37	Z37	X38	Y38	Z38	X39	Y39	Z39	X40	Y40	Z40	X41	Y41	Z41
																																																																																																																												
112	3.71	326.63616	1596.53595	-432.99175	155.61331	1597.31003	-431.41426	337.82558	1590.16388	-583.45448	143.0765	1594.40216	-583.7212	322.94594	1364.29123	-495.66658	176.56691	1359.37164	-479.8164	302.26109	1416.7514	-640.74326	146.61113	1412.90451	-624.11175	226.08709	1245.31082	-684.89937	251.35153	1295.77744	-451.56757	244.58004	1192.59537	-433.13972	441.36082	1382.89474	-558.92395	496.08398	1207.33398	-603.87676	518.27717	1069.04724	-636.04919	527.19948	936.17195	-659.07188	470.69286	770.0853	-596.51375	518.24989	769.72984	-670.12543	523.73039	723.92876	-618.04993	49.65042	1397.93381	-533.10066	-11.09574	1210.21828	-505.07603	-39.47838	1065.56259	-501.86935	-41.16386	963.66631	-483.65215	19.20668	838.63586	-334.47212	-24.26298	799.49661	-400.17418	-39.57269	787.8212	-337.36427	328.76854	966.00021	-471.10886	98.17879	935.12825	-494.00818	321.07758	977.97447	-674.4838	144.19531	967.1331	-678.80638	377.40673	684.18777	-578.09776	372.59132	504.57237	-465.48382	335.42809	322.43408	-432.6339	326.80424	141.70016	-493.44719	258.42636	63.91521	-552.20631	287.58936	56.16503	-354.15726	126.40317	658.39951	-657.99919	56.44868	472.59895	-586.25538	116.29656	312.51495	-734.26468	114.65462	287.45987	-918.15948	186.76476	293.11237	-968.65402	106.85617	119.00037	-921.41548
113	3.743	327.39128	1604.086	-389.02554	156.59628	1604.35333	-388.45612	339.60258	1599.47342	-539.46526	144.83394	1603.03757	-540.73109	323.946	1373.69125	-452.52869	177.50395	1368.21594	-438.57162	306.19707	1424.05121	-598.28243	150.80407	1420.95886	-583.61626	231.36013	1252.58156	-642.44392	251.74431	1305.00183	-409.04999	244.96244	1201.72707	-390.38708	443.7788	1392.2496	-514.47266	499.3314	1213.11081	-547.91821	520.73601	1072.5621	-570.10231	527.24209	937.05475	-579.26365	468.24711	780.06134	-499.36951	514.4091	770.01762	-571.3839	520.97618	731.73874	-513.98174	51.23117	1405.83374	-494.64512	-8.80901	1217.32399	-475.60333	-35.78465	1071.51077	-481.16745	-39.18201	969.40292	-471.61572	14.37187	830.64537	-332.18414	-27.34596	798.22243	-402.68215	-44.58251	781.16943	-341.62415	336.23505	972.59949	-430.20676	104.34437	946.32118	-447.92679	321.07376	985.73196	-633.66131	144.31259	974.26514	-633.69537	378.4499	690.7058	-552.97424	372.95437	504.09103	-452.17999	335.72533	321.21273	-426.09333	327.15096	142.18285	-491.58997	258.8892	64.84933	-552.08088	287.29336	55.64639	-353.76682	122.07341	659.93011	-588.43575	61.75036	481.50745	-495.90874	121.49553	316.27096	-636.07109	115.3921	282.83974	-819.13605	185.96233	286.86258	-874.3853	113.77205	117.39919	-804.07127
114	3.777	327.39635	1610.37354	-345.88631	156.63577	1609.32983	-346.25492	340.54539	1607.68234	-496.1869	145.77743	1609.77448	-498.57594	324.72752	1381.94366	-410.31414	178.24984	1376.19186	-398.16341	309.93296	1430.09476	-556.57455	154.89047	1427.24335	-544.36733	236.83941	1258.24432	-599.98596	252.00577	1313.23578	-367.17239	245.52444	1209.95758	-348.18615	445.77019	1400.49698	-470.70148	502.51366	1219.89128	-493.43887	523.4314	1077.92961	-503.27057	527.34215	940.6411	-498.25668	463.78521	796.30508	-400.12909	509.71619	776.0965	-471.41491	515.81799	744.99107	-409.14104	52.83888	1412.37122	-457.26955	-8.3329	1222.64305	-448.40836	-33.23523	1077.62177	-461.76449	-38.29149	975.9436	-460.90324	10.04519	823.54469	-334.42104	-30.5977	798.47984	-408.45814	-49.54122	776.287	-349.59129	343.92445	977.21115	-390.52265	110.63137	955.32814	-402.24033	319.9987	991.52786	-593.46283	143.5828	979.73671	-588.69209	378.0022	697.14737	-530.33241	372.55283	504.1888	-443.19733	336.0709	320.94486	-421.91162	327.14832	143.02464	-490.85197	258.85811	65.71051	-551.87965	287.35312	55.18292	-353.49419	116.05831	665.028	-524.17358	68.41771	492.87189	-408.57292	128.30364	316.67425	-536.01307	117.98341	264.68052	-714.24324	187.25515	262.5061	-774.73763	119.85291	107.3725	-673.42133
115	3.81	326.94141	1614.03046	-303.14875	156.06616	1611.39603	-304.34729	340.89405	1613.01437	-453.45844	146.0988	1613.47504	-456.68079	324.90559	1387.25113	-368.4771	178.37198	1381.49811	-358.12721	313.0274	1433.32916	-515.40932	158.52587	1430.53833	-504.97448	241.87658	1261.2056	-558.15544	251.94759	1318.53973	-325.84969	245.74398	1215.38406	-306.26831	446.8462	1406.29395	-426.81374	504.97421	1225.31357	-436.75217	526.71471	1082.68394	-436.89007	527.47845	945.24643	-417.06406	457.27036	815.62363	-303.97699	503.75881	785.51102	-371.02135	507.98485	762.15439	-305.41168	54.32294	1416.26236	-419.84707	-7.63029	1226.52565	-420.51804	-31.78731	1082.67311	-442.41291	-38.4062	982.17377	-449.76009	5.95501	817.01279	-338.73314	-34.60548	800.36461	-414.51668	-54.06664	772.43279	-358.53462	350.55645	979.04526	-351.70052	116.76531	961.89346	-356.14151	318.75286	993.99551	-553.42377	142.90533	983.34671	-543.35213	374.7139	701.63651	-506.97403	370.611	504.33235	-435.18124	334.98287	320.74776	-418.01815	326.05961	144.05802	-489.72286	258.07541	66.60853	-551.55804	286.85217	54.89598	-352.98241	107.0223	667.99522	-464.43409	75.24249	505.75382	-327.21447	134.89859	313.54746	-433.87642	121.06464	237.18676	-603.07121	191.00424	224.18148	-664.67094	119.49579	93.21318	-535.06126
116	3.843	326.11496	1614.13956	-260.86058	155.52784	1610.40298	-262.46988	340.77045	1614.15375	-410.91568	145.93766	1613.27911	-414.80747	324.45072	1389.03519	-326.41136	178.2427	1382.62405	-317.84092	315.46108	1433.92441	-473.57365	161.26429	1430.64362	-465.16617	245.94978	1261.30363	-516.69132	251.6403	1319.80286	-284.71823	246.20068	1216.63231	-264.8436	447.32265	1408.6438	-382.71656	507.32037	1228.75778	-380.5909	530.57217	1085.87685	-370.52624	527.44198	949.81102	-336.43482	449.11953	836.27182	-212.3131	496.81095	797.08633	-272.96703	498.34343	781.81633	-205.15156	55.7221	1416.38596	-381.52859	-7.29625	1227.28752	-391.62537	-30.76452	1085.31525	-421.42746	-39.0786	986.73676	-437.35901	1.68066	810.54863	-342.51495	-39.26738	802.55409	-419.28349	-58.63652	768.8472	-366.77788	355.81074	977.69142	-312.33881	121.97088	964.85603	-309.8926	317.02812	993.35312	-513.09608	141.86685	984.05762	-497.73838	370.99125	705.42099	-483.07873	368.80466	504.17187	-425.74432	333.76656	320.62477	-413.28396	325.33123	145.3215	-488.19565	257.04418	68.52512	-550.7922	286.73365	54.70362	-352.5473	99.24706	670.86052	-404.44855	81.0486	516.10924	-253.0496	138.91431	307.7779	-331.35178	122.94726	203.82502	-484.9514	192.1759	178.84979	-545.028	118.69657	77.55866	-391.43967
